<svg width="26" height="26" viewBox="0 0 26 26" fill="none" xmlns="http://www.w3.org/2000/svg">
<path d="M18.6042 16.4167H17.4521L17.0438 16.0229C18.5223 14.308 19.3349 12.1185 19.3333 9.85417C19.3333 7.97937 18.7774 6.14667 17.7358 4.58783C16.6942 3.02899 15.2138 1.81402 13.4817 1.09656C11.7496 0.379107 9.84366 0.191388 8.00488 0.557144C6.1661 0.9229 4.47707 1.8257 3.15139 3.15139C1.8257 4.47707 0.9229 6.1661 0.557144 8.00488C0.191388 9.84366 0.379107 11.7496 1.09656 13.4817C1.81402 15.2138 3.02899 16.6942 4.58783 17.7358C6.14667 18.7774 7.97937 19.3333 9.85417 19.3333C12.2021 19.3333 14.3604 18.4729 16.0229 17.0438L16.4167 17.4521V18.6042L23.7083 25.8813L25.8813 23.7083L18.6042 16.4167ZM9.85417 16.4167C6.22292 16.4167 3.29167 13.4854 3.29167 9.85417C3.29167 6.22292 6.22292 3.29167 9.85417 3.29167C13.4854 3.29167 16.4167 6.22292 16.4167 9.85417C16.4167 13.4854 13.4854 16.4167 9.85417 16.4167Z" fill="black"/>
</svg>
